{"scene":0,"asset":{"generator":"ImageToStl.com","version":"2.0"},"scenes":[{"name":"Scene","nodes":[0]}],"nodes":[{"name":"Node0","children":[1,2,3,4,5,6,7,8,9,10,11,12]},{"name":"Node1","mesh":0},{"name":"Node2","mesh":1},{"name":"Node3","mesh":2},{"name":"Node4","mesh":3},{"name":"Node5","mesh":4},{"name":"Node6","mesh":5},{"name":"Node7","mesh":6},{"name":"Node8","mesh":7},{"name":"Node9","mesh":8},{"name":"Node10","mesh":9},{"name":"Node11","mesh":10},{"name":"Node12","mesh":11}],"materials":[{"name":"x1","pbrMetallicRoughness":{"baseColorFactor":[0.85,0.85,0.85,1.0],"metallicFactor":0.05,"roughnessFactor":0.5},"doubleSided":true}],"meshes":[{"name":"Mesh0","primitives":[{"indices":2,"material":0,"attributes":{"POSITION":0,"NORMAL":1}}]},{"name":"Mesh0","primitives":[{"indices":5,"material":0,"attributes":{"POSITION":3,"NORMAL":4}}]},{"name":"Mesh0","primitives":[{"indices":8,"material":0,"attributes":{"POSITION":6,"NORMAL":7}}]},{"name":"Mesh0","primitives":[{"indices":11,"material":0,"attributes":{"POSITION":9,"NORMAL":10}}]},{"name":"Mesh0","primitives":[{"indices":14,"material":0,"attributes":{"POSITION":12,"NORMAL":13}}]},{"name":"Mesh0","primitives":[{"indices":17,"material":0,"attributes":{"POSITION":15,"NORMAL":16}}]},{"name":"Mesh0","primitives":[{"indices":20,"material":0,"attributes":{"POSITION":18,"NORMAL":19}}]},{"name":"Mesh0","primitives":[{"indices":23,"material":0,"attributes":{"POSITION":21,"NORMAL":22}}]},{"name":"Mesh0","primitives":[{"indices":26,"material":0,"attributes":{"POSITION":24,"NORMAL":25}}]},{"name":"Mesh0","primitives":[{"indices":29,"material":0,"attributes":{"POSITION":27,"NORMAL":28}}]},{"name":"Mesh0","primitives":[{"indices":32,"material":0,"attributes":{"POSITION":30,"NORMAL":31}}]},{"name":"Mesh0","primitives":[{"indices":35,"material":0,"attributes":{"POSITION":33,"NORMAL":34}}]}],"accessors":[{"bufferView":0,"componentType":5126,"count":384,"type":"VEC3","min":[0.898138,-0.166428,-0.389826],"max":[0.966589,0.020659,0.383634]},{"bufferView":1,"componentType":5126,"count":384,"type":"VEC3"},{"bufferView":2,"componentType":5123,"count":744,"type":"SCALAR"},{"bufferView":3,"componentType":5126,"count":384,"type":"VEC3","min":[-0.96576,-0.166428,-0.39102],"max":[-0.897309,0.020659,0.38244]},{"bufferView":4,"componentType":5126,"count":384,"type":"VEC3"},{"bufferView":5,"componentType":5123,"count":744,"type":"SCALAR"},{"bufferView":6,"componentType":5126,"count":96,"type":"VEC3","min":[-0.292192,0.226364,-0.240818],"max":[0.298763,0.585425,-0.075301]},{"bufferView":7,"componentType":5126,"count":96,"type":"VEC3"},{"bufferView":8,"componentType":5123,"count":564,"type":"SCALAR"},{"bufferView":9,"componentType":5126,"count":96,"type":"VEC3","min":[0.294557,0.226364,-0.240818],"max":[0.816944,0.585425,-0.075301]},{"bufferView":10,"componentType":5126,"count":96,"type":"VEC3"},{"bufferView":11,"componentType":5123,"count":564,"type":"SCALAR"},{"bufferView":12,"componentType":5126,"count":96,"type":"VEC3","min":[-0.813705,0.226364,-0.240818],"max":[-0.291318,0.585425,-0.075301]},{"bufferView":13,"componentType":5126,"count":96,"type":"VEC3"},{"bufferView":14,"componentType":5123,"count":564,"type":"SCALAR"},{"bufferView":15,"componentType":5126,"count":56,"type":"VEC3","min":[-0.276379,0.161827,-0.231756],"max":[0.277408,0.245643,0.436161]},{"bufferView":16,"componentType":5126,"count":56,"type":"VEC3"},{"bufferView":17,"componentType":5123,"count":324,"type":"SCALAR"},{"bufferView":18,"componentType":5126,"count":56,"type":"VEC3","min":[0.283527,0.159881,-0.231117],"max":[0.822204,0.243698,0.4368]},{"bufferView":19,"componentType":5126,"count":56,"type":"VEC3"},{"bufferView":20,"componentType":5123,"count":324,"type":"SCALAR"},{"bufferView":21,"componentType":5126,"count":56,"type":"VEC3","min":[-0.823055,0.159881,-0.231117],"max":[-0.284378,0.243698,0.4368]},{"bufferView":22,"componentType":5126,"count":56,"type":"VEC3"},{"bufferView":23,"componentType":5123,"count":324,"type":"SCALAR"},{"bufferView":24,"componentType":5126,"count":24,"type":"VEC3","min":[-0.999259,0.047262,-0.413179],"max":[-0.818717,0.410059,0.428457]},{"bufferView":25,"componentType":5126,"count":24,"type":"VEC3"},{"bufferView":26,"componentType":5123,"count":132,"type":"SCALAR"},{"bufferView":27,"componentType":5126,"count":268,"type":"VEC3","min":[-0.821147,0.059177,-0.412711],"max":[0.826442,0.478736,-0.232168]},{"bufferView":28,"componentType":5126,"count":268,"type":"VEC3"},{"bufferView":29,"componentType":5123,"count":612,"type":"SCALAR"},{"bufferView":30,"componentType":5126,"count":24,"type":"VEC3","min":[0.821336,0.047262,-0.413179],"max":[1.001879,0.410059,0.428457]},{"bufferView":31,"componentType":5126,"count":24,"type":"VEC3"},{"bufferView":32,"componentType":5123,"count":132,"type":"SCALAR"},{"bufferView":33,"componentType":5126,"count":48,"type":"VEC3","min":[-1.0,0.002047,-0.415104],"max":[1.0,0.153414,0.425069]},{"bufferView":34,"componentType":5126,"count":48,"type":"VEC3"},{"bufferView":35,"componentType":5123,"count":168,"type":"SCALAR"}],"bufferViews":[{"target":34962,"buffer":0,"byteLength":4608,"byteOffset":0},{"target":34962,"buffer":0,"byteLength":4608,"byteOffset":4608},{"target":34963,"buffer":0,"byteLength":1488,"byteOffset":9216},{"target":34962,"buffer":0,"byteLength":4608,"byteOffset":10704},{"target":34962,"buffer":0,"byteLength":4608,"byteOffset":15312},{"target":34963,"buffer":0,"byteLength":1488,"byteOffset":19920},{"target":34962,"buffer":0,"byteLength":1152,"byteOffset":21408},{"target":34962,"buffer":0,"byteLength":1152,"byteOffset":22560},{"target":34963,"buffer":0,"byteLength":1128,"byteOffset":23712},{"target":34962,"buffer":0,"byteLength":1152,"byteOffset":24840},{"target":34962,"buffer":0,"byteLength":1152,"byteOffset":25992},{"target":34963,"buffer":0,"byteLength":1128,"byteOffset":27144},{"target":34962,"buffer":0,"byteLength":1152,"byteOffset":28272},{"target":34962,"buffer":0,"byteLength":1152,"byteOffset":29424},{"target":34963,"buffer":0,"byteLength":1128,"byteOffset":30576},{"target":34962,"buffer":0,"byteLength":672,"byteOffset":31704},{"target":34962,"buffer":0,"byteLength":672,"byteOffset":32376},{"target":34963,"buffer":0,"byteLength":648,"byteOffset":33048},{"target":34962,"buffer":0,"byteLength":672,"byteOffset":33696},{"target":34962,"buffer":0,"byteLength":672,"byteOffset":34368},{"target":34963,"buffer":0,"byteLength":648,"byteOffset":35040},{"target":34962,"buffer":0,"byteLength":672,"byteOffset":35688},{"target":34962,"buffer":0,"byteLength":672,"byteOffset":36360},{"target":34963,"buffer":0,"byteLength":648,"byteOffset":37032},{"target":34962,"buffer":0,"byteLength":288,"byteOffset":37680},{"target":34962,"buffer":0,"byteLength":288,"byteOffset":37968},{"target":34963,"buffer":0,"byteLength":264,"byteOffset":38256},{"target":34962,"buffer":0,"byteLength":3216,"byteOffset":38520},{"target":34962,"buffer":0,"byteLength":3216,"byteOffset":41736},{"target":34963,"buffer":0,"byteLength":1224,"byteOffset":44952},{"target":34962,"buffer":0,"byteLength":288,"byteOffset":46176},{"target":34962,"buffer":0,"byteLength":288,"byteOffset":46464},{"target":34963,"buffer":0,"byteLength":264,"byteOffset":46752},{"target":34962,"buffer":0,"byteLength":576,"byteOffset":47016},{"target":34962,"buffer":0,"byteLength":576,"byteOffset":47592},{"target":34963,"buffer":0,"byteLength":336,"byteOffset":48168}],"buffers":[{"byteLength":48504,"uri":"data:application/octet-stream;base64,"}]}